Patient4_TMGait_0pt6_01_left_25_EMG.mot
version=1
nRows=23
nColumns=33
inDegrees=no
endheader
time	1LAddLong	2LGlutMax	3LGlutMed	4LIliopsoas	5LSemiMemb	6LBicFemLong	7LRecFem	8LVastMed	9LVastLat	10LGasMed	11LTibAnt	12lTibPost	13LPeroneusLong	14LSol	15LExtDigLong	16LFlexDigLong	17RAddLong	18RGlutMax	19RGlutMed	20RIliopsoas	21RSemiMemb	22RBicFemLong	23RRecFem	24RVastMed	25RVastLat	26RGasMed	27RTibAnt	28RTibPost	29RPeroneusLong	30RSol	31RExtDigLong	32RFlexDigLong
31.27	0.005646	-0.077972	0.16068	0.007019	0.061035	0.000153	0.00885	0.012665	-0.003967	0.033569	0.008698	-0.027924	0.004272	-0.44891	0.023041	0.016327	-0.084381	-0.19852	-0.12558	0.014801	0.02182	0.17624	-0.18967	0.28244	0.082397	0.002899	0.000458	0.000305	0.53665	0.24262	-0.000153	-0.003662
31.271	-0.004425	-0.005646	0.24139	0.016937	0.02655	-0.049133	-0.016479	0.00946	0.005188	0.000458	0.005035	-0.016022	0.007019	-0.12238	0.028381	-0.032196	-0.097961	-0.10544	-0.21316	0.04715	0.30106	0.14832	-0.49164	0.37003	0.1915	0.011139	0.007477	-0.001221	0.24078	0.19791	-0.010223	-0.009003
31.272	-0.009003	-0.026093	0.24338	0.007324	-0.007019	-0.005035	-0.04364	0.001373	0.005188	-0.18433	-0.011597	-0.019989	0.023041	0.085602	0.026093	-0.055695	-0.10696	-0.015717	-0.1915	0.056	0.42038	0.11963	-0.65292	0.38116	0.17319	0.011292	0.070648	0.000305	-0.10757	0.037384	-0.004425	-0.008392
31.273	-0.011292	-0.050659	0.22079	-0.001678	-0.063782	0.10681	-0.052338	0.006866	0.007324	-0.26566	-0.027771	-0.027618	0.039368	0.21973	0.010223	-0.070496	-0.086517	0.074158	-0.3215	-0.041504	0.37796	0.04364	-0.67886	0.32791	0.068054	0.005951	0.12192	0.000458	0.10666	0.014496	-0.003204	-0.011292
31.274	-0.025787	-0.034027	0.21072	-0.004883	-0.045319	0.023041	-0.063934	-0.010376	0.029297	-0.36072	0.005646	-0.035248	0.050507	0.23102	0.006409	-0.081482	-0.029602	0.068054	-0.54336	-0.07019	0.47638	0.024414	-0.43182	0.25223	0.12039	-0.004425	0.10071	-0.001068	0.13321	0.13092	-0.00412	-0.011597
31.275	0.001678	-0.038605	0.19211	0.013123	-0.023804	-0.12268	-0.03067	-0.005951	0.015259	-0.30151	0.011902	-0.005493	0.021362	0.18906	0.020294	-0.033722	0.010681	0.039825	-0.32715	-0.077515	0.33829	0.001831	-0.27679	0.15228	0.11124	0.010071	0.15015	0.003052	0.14069	0.11154	-0.006256	-0.009155
31.276	0.038605	-0.037537	0.15778	0.002441	0.054932	-0.20737	-0.015259	-0.009766	0.006256	-0.039063	0.028076	0.000153	-0.023346	0.13306	0.028534	-0.001373	0.034485	0.076141	-0.044403	0.036469	0.23102	-0.007629	-0.036316	0.073853	0.06424	0.004578	0.21423	0.001678	0.15015	0.052338	-0.001526	-0.015411
31.277	0.038605	0.058746	0.13245	0.001068	0.11139	-0.23025	0.019379	-0.009613	-0.012817	0.019989	0.021057	0.046234	-0.074005	0.14832	0.038757	0.011292	0.045471	0.034637	-0.14877	0.059509	0.14923	-0.012207	0.008392	0.017548	0.033569	0.000458	0.25207	0.002289	0.13825	0.063171	-0.004272	-0.014496
31.278	0.020905	0.024719	0.20767	-0.001221	0.05722	-0.16403	0.045166	-0.00061	-0.019226	0.26016	0.019531	0.013885	-0.10376	0.224	0.057373	0.01297	0.03067	-0.066833	-0.054626	0.029144	0.043793	0.014343	-0.019684	-0.093689	-0.025177	-0.004578	0.31281	0.000916	0.13153	0.089722	-0.005798	-0.013123
31.279	0.014191	0.038757	0.31738	0.000916	0.016022	-0.18814	0.049133	-0.001678	-0.027161	0.17685	0.029755	0.005188	-0.1062	0.000458	0.045624	-0.00412	0.041656	-0.19379	0.40131	-0.11612	0.049133	0.024109	-0.18372	-0.17349	-0.070343	0.005493	0.24231	0.000763	0.11002	0.075073	-0.003357	-0.005341
31.28	0.003967	-0.007477	0.31342	-0.003967	-0.007477	-0.013733	0.009918	0.006256	-0.036469	0.15961	0.035248	0.011444	-0.057831	-0.168	0.045013	-0.001373	0.067139	-0.25909	0.27542	-0.16754	0.10742	-0.053253	-0.13412	-0.21103	-0.11948	0.000153	-0.21286	0.001221	0.093231	0.00885	-0.005646	-0.014954
31.281	0.006561	-0.016479	0.27832	0.007629	-0.027771	0.041809	-0.006866	0.000305	-0.045776	0.46493	0.021362	0.010529	-0.032654	-0.2417	0.037537	0.01297	0.089111	-0.16113	-0.11993	-0.097504	0.12802	-0.13092	-0.11856	-0.24124	-0.084991	-0.001678	-0.56351	0.001831	0.084839	-0.020447	-0.001678	-0.006714
31.282	0.010223	0.017395	0.25452	0.009766	-0.047302	0.010223	0.007782	-0.000916	-0.047913	0.44342	0.027313	0.00946	-0.002594	-0.31647	0.009766	0.036774	0.063171	-0.037231	-0.32989	0.030212	0.099335	-0.11292	-0.27206	-0.27191	-0.006256	-0.006561	-0.50476	0.001373	-0.007019	-0.066376	-0.004578	-0.010376
31.283	0.01236	0.059509	0.23865	0.007477	-0.029602	0.002747	0.051575	0.006256	-0.049438	-0.072479	0.005035	-0.003052	0.058289	-0.25787	-0.068054	0.011292	0.044861	0.04425	-0.44678	0.09552	0.001221	-0.015564	-0.42725	-0.36102	-0.033112	-0.012512	-0.36987	0.002136	-0.091553	-0.088348	-0.000153	-0.004272
31.284	0.018463	0.035095	0.25665	-0.004425	-0.00351	0.036163	0.043182	0.00824	-0.044556	-0.41031	-0.01709	0.006866	0.071411	0.18112	-0.103	-0.021667	0.043488	0.12817	-0.43472	0.15564	-0.11063	0.010986	-0.37323	-0.44052	0.008087	-0.005188	0.016479	0.003204	-0.090179	-0.11063	-0.002594	-0.007935
31.285	0.012512	0.039825	0.24139	0.004272	-0.001831	0.10239	0.023956	0.009308	-0.058594	-0.39856	-0.029907	-0.001221	0.12253	0.46631	-0.10208	-0.092926	0.063171	0.1503	0.10391	0.09201	0.023499	-0.068665	-0.35141	-0.31281	0.19409	-0.004883	0.46845	0.00473	-0.15121	-0.095062	-0.001984	-0.00824
31.286	0.014191	0.04303	0.25436	0.023193	-0.023499	0.20737	-0.006561	0.015106	-0.078125	-0.19531	-0.04364	0.007782	0.085907	0.60516	-0.083923	0.031433	0.031128	0.21637	0.39475	-0.018768	0.1738	-0.074463	-0.32013	-0.20721	0.28336	-0.006409	0.23773	0.001373	-0.017242	-0.037384	-0.005341	-0.005188
31.287	0.00885	0.056915	0.23651	0.013123	-0.042419	0.17334	-0.03891	-0.001221	0.011444	0.008087	-0.024567	0.00351	0.069885	0.49835	-0.037689	0.20569	-0.004883	0.16708	0.19821	-0.031738	0.10132	-0.068512	-0.16281	-0.12497	0.18875	-0.003052	-0.1503	-0.002441	0.21545	-0.084381	0.001068	-0.001678
31.288	0.010376	0.11139	0.23712	0.019226	-0.061646	0.10162	-0.023956	0.000916	0.009613	0.20966	-0.019989	0.005646	0.059204	0.29923	-0.013123	-0.039978	-0.019836	0.16388	0.091248	-0.064697	0.097046	-0.1297	-0.28641	0.051727	0.22766	0.003967	-0.26138	0.002747	0.2977	-0.11154	-0.000916	-0.009613
31.289	0.010071	0.15869	0.22797	0.002747	-0.063477	0.046387	-0.021515	0.001831	-0.00061	0.22614	-0.00824	0.001678	0.046234	0.14297	-0.005646	-0.013885	0.01358	0.19974	0.042725	-0.03067	0.082092	-0.26276	-0.26794	0.27786	0.23315	0.008545	0.089264	0.004425	0.37628	-0.12528	-0.005188	-0.001831
31.29	0.012054	0.14542	0.22324	0.002136	-0.039673	0.06073	-0.010529	0.005951	-0.011139	0.085907	-0.015411	-0.001984	0.04715	0.14358	-0.001678	0.00824	0.066986	0.14145	-0.11322	0.007782	0.063782	-0.49011	-0.093842	0.17288	0.12558	0.005951	0.075073	0.001221	0.068054	-0.091095	-0.001526	-0.000458
31.291	0.016327	0.10269	0.21225	0.000458	-0.014343	-0.007935	-0.019073	0.000916	-0.014343	0.033264	-0.007782	0.002136	0.025024	0.20233	0	0.013123	0.12329	-0.016632	-0.39627	0.051575	0.041809	-0.64102	-0.07431	0.000916	0.075531	-0.001678	-0.092316	-0.000305	-0.22385	0.015564	-0.001373	-0.007782
31.292	0.012817	0.12741	0.2095	-0.006561	0.013123	-0.22949	-0.012665	0.009003	-0.013733	0.045929	-0.000153	0.005035	0.036621	0.22201	0.002899	0.012054	0.1265	-0.030365	-0.47958	0.063629	-0.012207	-0.47867	-0.072174	-0.10117	0.060883	-0.002899	-0.17212	0.006104	-0.12299	0.076141	-0.001221	-0.006409
